{
	"asset":{
		"generator":"Khronos glTF Blender I/O v5.0.21",
		"version":"2.0"
	},
	"extensionsUsed":[
		"KHR_materials_specular",
		"EXT_texture_webp"
	],
	"extensionsRequired":[
		"EXT_texture_webp"
	],
	"scene":0,
	"scenes":[
		{
			"name":"Scene",
			"nodes":[
				10,
				11
			]
		}
	],
	"nodes":[
		{
			"mesh":0,
			"name":"Object_10"
		},
		{
			"mesh":1,
			"name":"Object_2"
		},
		{
			"mesh":2,
			"name":"Object_3"
		},
		{
			"mesh":3,
			"name":"Object_4"
		},
		{
			"mesh":4,
			"name":"Object_5"
		},
		{
			"mesh":5,
			"name":"Object_6"
		},
		{
			"mesh":6,
			"name":"Object_7"
		},
		{
			"mesh":7,
			"name":"Object_8"
		},
		{
			"mesh":8,
			"name":"Object_9"
		},
		{
			"children":[
				0,
				1,
				2,
				3,
				4,
				5,
				6,
				7,
				8
			],
			"name":"Mineways2Skfb.obj.minecraft.cleaner.materialmerger.gles"
		},
		{
			"children":[
				9
			],
			"name":"Sketchfab_model",
			"rotation":[
				-0.70710688829422,
				0,
				0,
				0.7071066498756409
			]
		},
		{
			"mesh":9,
			"name":"achivement",
			"rotation":[
				0.3535533845424652,
				-0.6123724579811096,
				0.3535534143447876,
				0.6123723983764648
			],
			"scale":[
				0.5,
				1,
				0.5
			],
			"translation":[
				2.6539459228515625,
				1.823196530342102,
				0
			]
		}
	],
	"materials":[
		{
			"doubleSided":true,
			"emissiveFactor":[
				0.10000000149011612,
				0.10000000149011612,
				0.10000000149011612
			],
			"emissiveTexture":{
				"index":0
			},
			"extensions":{
				"KHR_materials_specular":{
					"specularFactor":0
				}
			},
			"name":"Stone_Button",
			"pbrMetallicRoughness":{
				"baseColorTexture":{
					"index":1
				},
				"metallicFactor":0
			}
		},
		{
			"doubleSided":true,
			"emissiveFactor":[
				0.10000000149011612,
				0.10000000149011612,
				0.10000000149011612
			],
			"emissiveTexture":{
				"index":2
			},
			"extensions":{
				"KHR_materials_specular":{
					"specularFactor":0
				}
			},
			"name":"End_Portal_Frame",
			"pbrMetallicRoughness":{
				"baseColorTexture":{
					"index":3
				},
				"metallicFactor":0
			}
		},
		{
			"doubleSided":true,
			"emissiveFactor":[
				0.10000000149011612,
				0.10000000149011612,
				0.10000000149011612
			],
			"emissiveTexture":{
				"index":4
			},
			"extensions":{
				"KHR_materials_specular":{
					"specularFactor":0
				}
			},
			"name":"Infested_Stone",
			"pbrMetallicRoughness":{
				"baseColorTexture":{
					"index":5
				},
				"metallicFactor":0
			}
		},
		{
			"alphaMode":"BLEND",
			"emissiveFactor":[
				0.10000000149011612,
				0.10000000149011612,
				0.10000000149011612
			],
			"emissiveTexture":{
				"index":6
			},
			"extensions":{
				"KHR_materials_specular":{
					"specularFactor":0
				}
			},
			"name":"Iron_Bars",
			"pbrMetallicRoughness":{
				"baseColorTexture":{
					"index":7
				},
				"metallicFactor":0
			}
		},
		{
			"alphaMode":"BLEND",
			"emissiveFactor":[
				0.10000000149011612,
				0.10000000149011612,
				0.10000000149011612
			],
			"emissiveTexture":{
				"index":8
			},
			"extensions":{
				"KHR_materials_specular":{
					"specularFactor":0
				}
			},
			"name":"Spawner",
			"pbrMetallicRoughness":{
				"baseColorTexture":{
					"index":9
				},
				"metallicFactor":0
			}
		},
		{
			"doubleSided":true,
			"emissiveFactor":[
				1,
				1,
				1
			],
			"emissiveTexture":{
				"index":10
			},
			"extensions":{
				"KHR_materials_specular":{
					"specularFactor":0
				}
			},
			"name":"Stationary_Lava",
			"pbrMetallicRoughness":{
				"baseColorTexture":{
					"index":11
				},
				"metallicFactor":0
			}
		},
		{
			"alphaMode":"BLEND",
			"emissiveFactor":[
				0.10000000149011612,
				0.10000000149011612,
				0.10000000149011612
			],
			"emissiveTexture":{
				"index":12
			},
			"extensions":{
				"KHR_materials_specular":{
					"specularFactor":0
				}
			},
			"name":"Stationary_Water",
			"pbrMetallicRoughness":{
				"baseColorTexture":{
					"index":13
				},
				"metallicFactor":0
			}
		},
		{
			"doubleSided":true,
			"emissiveFactor":[
				0.10000000149011612,
				0.10000000149011612,
				0.10000000149011612
			],
			"emissiveTexture":{
				"index":14
			},
			"extensions":{
				"KHR_materials_specular":{
					"specularFactor":0
				}
			},
			"name":"Stone_Brick_Stairs",
			"pbrMetallicRoughness":{
				"baseColorTexture":{
					"index":15
				},
				"metallicFactor":0
			}
		},
		{
			"doubleSided":true,
			"emissiveFactor":[
				0.10000000149011612,
				0.10000000149011612,
				0.10000000149011612
			],
			"emissiveTexture":{
				"index":16
			},
			"extensions":{
				"KHR_materials_specular":{
					"specularFactor":0
				}
			},
			"name":"Stone_Bricks",
			"pbrMetallicRoughness":{
				"baseColorTexture":{
					"index":17
				},
				"metallicFactor":0
			}
		},
		{
			"alphaMode":"BLEND",
			"doubleSided":true,
			"name":"achivement",
			"pbrMetallicRoughness":{
				"baseColorTexture":{
					"index":18
				},
				"metallicFactor":0,
				"roughnessFactor":0.5
			}
		}
	],
	"meshes":[
		{
			"name":"Object_8",
			"primitives":[
				{
					"attributes":{
						"POSITION":0,
						"NORMAL":1,
						"TEXCOORD_0":2
					},
					"indices":3,
					"material":0
				}
			]
		},
		{
			"name":"Object_0",
			"primitives":[
				{
					"attributes":{
						"POSITION":4,
						"NORMAL":5,
						"TEXCOORD_0":6
					},
					"indices":7,
					"material":1
				}
			]
		},
		{
			"name":"Object_1",
			"primitives":[
				{
					"attributes":{
						"POSITION":8,
						"NORMAL":9,
						"TEXCOORD_0":10
					},
					"indices":11,
					"material":2
				}
			]
		},
		{
			"name":"Object_2",
			"primitives":[
				{
					"attributes":{
						"POSITION":12,
						"NORMAL":13,
						"TEXCOORD_0":14
					},
					"indices":15,
					"material":3
				}
			]
		},
		{
			"name":"Object_3",
			"primitives":[
				{
					"attributes":{
						"POSITION":16,
						"NORMAL":17,
						"TEXCOORD_0":18
					},
					"indices":19,
					"material":4
				}
			]
		},
		{
			"name":"Object_4",
			"primitives":[
				{
					"attributes":{
						"POSITION":20,
						"NORMAL":21,
						"TEXCOORD_0":22
					},
					"indices":23,
					"material":5
				}
			]
		},
		{
			"name":"Object_5",
			"primitives":[
				{
					"attributes":{
						"POSITION":24,
						"NORMAL":25,
						"TEXCOORD_0":26
					},
					"indices":27,
					"material":6
				}
			]
		},
		{
			"name":"Object_6",
			"primitives":[
				{
					"attributes":{
						"POSITION":28,
						"NORMAL":29,
						"TEXCOORD_0":30
					},
					"indices":31,
					"material":7
				}
			]
		},
		{
			"name":"Object_7",
			"primitives":[
				{
					"attributes":{
						"POSITION":32,
						"NORMAL":33,
						"TEXCOORD_0":34
					},
					"indices":35,
					"material":8
				}
			]
		},
		{
			"name":"achivement",
			"primitives":[
				{
					"attributes":{
						"POSITION":36,
						"NORMAL":37,
						"TEXCOORD_0":38
					},
					"indices":39,
					"material":9
				}
			]
		}
	],
	"textures":[
		{
			"sampler":0,
			"source":0
		},
		{
			"sampler":0,
			"source":0
		},
		{
			"sampler":0,
			"source":0
		},
		{
			"sampler":0,
			"source":0
		},
		{
			"sampler":0,
			"source":0
		},
		{
			"sampler":0,
			"source":0
		},
		{
			"sampler":0,
			"source":0
		},
		{
			"sampler":0,
			"source":1
		},
		{
			"sampler":0,
			"source":0
		},
		{
			"sampler":0,
			"source":1
		},
		{
			"sampler":0,
			"source":0
		},
		{
			"sampler":0,
			"source":0
		},
		{
			"sampler":0,
			"source":0
		},
		{
			"sampler":0,
			"source":1
		},
		{
			"sampler":0,
			"source":0
		},
		{
			"sampler":0,
			"source":0
		},
		{
			"sampler":0,
			"source":0
		},
		{
			"sampler":0,
			"source":0
		},
		{
			"extensions":{
				"EXT_texture_webp":{
					"source":2
				}
			},
			"sampler":1
		}
	],
	"images":[
		{
			"mimeType":"image/png",
			"name":"End_Portal_Frame_baseColor",
			"uri":"End_Portal_Frame_baseColor.png"
		},
		{
			"mimeType":"image/png",
			"name":"Iron_Bars_baseColor",
			"uri":"Iron_Bars_baseColor.png"
		},
		{
			"mimeType":"image/webp",
			"name":"achivement",
			"uri":"achivement.webp"
		}
	],
	"accessors":[
		{
			"bufferView":0,
			"componentType":5126,
			"count":24,
			"max":[
				-1.0416699647903442,
				0.8333330154418945,
				0.4375
			],
			"min":[
				-1.1145800352096558,
				0.8125,
				0.39583298563957214
			],
			"type":"VEC3"
		},
		{
			"bufferView":1,
			"componentType":5126,
			"count":24,
			"type":"VEC3"
		},
		{
			"bufferView":2,
			"componentType":5126,
			"count":24,
			"type":"VEC2"
		},
		{
			"bufferView":3,
			"componentType":5123,
			"count":36,
			"type":"SCALAR"
		},
		{
			"bufferView":4,
			"componentType":5126,
			"count":196,
			"max":[
				1.8333300352096558,
				0.33333298563957214,
				0.6354169845581055
			],
			"min":[
				1,
				-0.5,
				0.5
			],
			"type":"VEC3"
		},
		{
			"bufferView":5,
			"componentType":5126,
			"count":196,
			"type":"VEC3"
		},
		{
			"bufferView":6,
			"componentType":5126,
			"count":196,
			"type":"VEC2"
		},
		{
			"bufferView":7,
			"componentType":5123,
			"count":294,
			"type":"SCALAR"
		},
		{
			"bufferView":8,
			"componentType":5126,
			"count":460,
			"max":[
				2,
				0.8333330154418945,
				1
			],
			"min":[
				-2.166670083999634,
				-1,
				0
			],
			"type":"VEC3"
		},
		{
			"bufferView":9,
			"componentType":5126,
			"count":460,
			"type":"VEC3"
		},
		{
			"bufferView":10,
			"componentType":5126,
			"count":460,
			"type":"VEC2"
		},
		{
			"bufferView":11,
			"componentType":5123,
			"count":690,
			"type":"SCALAR"
		},
		{
			"bufferView":12,
			"componentType":5126,
			"count":248,
			"max":[
				-0.23958300054073334,
				0.16666699945926666,
				0.6666669845581055
			],
			"min":[
				-2.09375,
				-0.33333298563957214,
				0.16666699945926666
			],
			"type":"VEC3"
		},
		{
			"bufferView":13,
			"componentType":5126,
			"count":248,
			"type":"VEC3"
		},
		{
			"bufferView":14,
			"componentType":5126,
			"count":248,
			"type":"VEC2"
		},
		{
			"bufferView":15,
			"componentType":5123,
			"count":372,
			"type":"SCALAR"
		},
		{
			"bufferView":16,
			"componentType":5126,
			"count":16,
			"max":[
				0.8333330154418945,
				0,
				0.6666669845581055
			],
			"min":[
				0.6666669845581055,
				-0.16666699945926666,
				0.5
			],
			"type":"VEC3"
		},
		{
			"bufferView":17,
			"componentType":5126,
			"count":16,
			"type":"VEC3"
		},
		{
			"bufferView":18,
			"componentType":5126,
			"count":16,
			"type":"VEC2"
		},
		{
			"bufferView":19,
			"componentType":5123,
			"count":24,
			"type":"SCALAR"
		},
		{
			"bufferView":20,
			"componentType":5126,
			"count":60,
			"max":[
				1.6666699647903442,
				0.6666669845581055,
				0.3148150146007538
			],
			"min":[
				-0.16666699945926666,
				-0.8333330154418945,
				0.3148150146007538
			],
			"type":"VEC3"
		},
		{
			"bufferView":21,
			"componentType":5126,
			"count":60,
			"type":"VEC3"
		},
		{
			"bufferView":22,
			"componentType":5126,
			"count":60,
			"type":"VEC2"
		},
		{
			"bufferView":23,
			"componentType":5123,
			"count":90,
			"type":"SCALAR"
		},
		{
			"bufferView":24,
			"componentType":5126,
			"count":180,
			"max":[
				-1,
				0.16666699945926666,
				0.8015869855880737
			],
			"min":[
				-1.5,
				-0.33333298563957214,
				0.29629600048065186
			],
			"type":"VEC3"
		},
		{
			"bufferView":25,
			"componentType":5126,
			"count":180,
			"type":"VEC3"
		},
		{
			"bufferView":26,
			"componentType":5126,
			"count":180,
			"type":"VEC2"
		},
		{
			"bufferView":27,
			"componentType":5123,
			"count":270,
			"type":"SCALAR"
		},
		{
			"bufferView":28,
			"componentType":5126,
			"count":200,
			"max":[
				0.8333330154418945,
				0.16666699945926666,
				0.6666669845581055
			],
			"min":[
				0.33333298563957214,
				-0.33333298563957214,
				0.16666699945926666
			],
			"type":"VEC3"
		},
		{
			"bufferView":29,
			"componentType":5126,
			"count":200,
			"type":"VEC3"
		},
		{
			"bufferView":30,
			"componentType":5126,
			"count":200,
			"type":"VEC2"
		},
		{
			"bufferView":31,
			"componentType":5123,
			"count":312,
			"type":"SCALAR"
		},
		{
			"bufferView":32,
			"componentType":5126,
			"count":5448,
			"max":[
				2.166670083999634,
				0.8333330154418945,
				1
			],
			"min":[
				-2.166670083999634,
				-1,
				0
			],
			"type":"VEC3"
		},
		{
			"bufferView":33,
			"componentType":5126,
			"count":5448,
			"type":"VEC3"
		},
		{
			"bufferView":34,
			"componentType":5126,
			"count":5448,
			"type":"VEC2"
		},
		{
			"bufferView":35,
			"componentType":5123,
			"count":8172,
			"type":"SCALAR"
		},
		{
			"bufferView":36,
			"componentType":5126,
			"count":4,
			"max":[
				2.5,
				0,
				0.5
			],
			"min":[
				-2.5,
				0,
				-0.5
			],
			"type":"VEC3"
		},
		{
			"bufferView":37,
			"componentType":5126,
			"count":4,
			"type":"VEC3"
		},
		{
			"bufferView":38,
			"componentType":5126,
			"count":4,
			"type":"VEC2"
		},
		{
			"bufferView":39,
			"componentType":5123,
			"count":6,
			"type":"SCALAR"
		}
	],
	"bufferViews":[
		{
			"buffer":0,
			"byteLength":288,
			"byteOffset":0,
			"target":34962
		},
		{
			"buffer":0,
			"byteLength":288,
			"byteOffset":288,
			"target":34962
		},
		{
			"buffer":0,
			"byteLength":192,
			"byteOffset":576,
			"target":34962
		},
		{
			"buffer":0,
			"byteLength":72,
			"byteOffset":768,
			"target":34963
		},
		{
			"buffer":0,
			"byteLength":2352,
			"byteOffset":840,
			"target":34962
		},
		{
			"buffer":0,
			"byteLength":2352,
			"byteOffset":3192,
			"target":34962
		},
		{
			"buffer":0,
			"byteLength":1568,
			"byteOffset":5544,
			"target":34962
		},
		{
			"buffer":0,
			"byteLength":588,
			"byteOffset":7112,
			"target":34963
		},
		{
			"buffer":0,
			"byteLength":5520,
			"byteOffset":7700,
			"target":34962
		},
		{
			"buffer":0,
			"byteLength":5520,
			"byteOffset":13220,
			"target":34962
		},
		{
			"buffer":0,
			"byteLength":3680,
			"byteOffset":18740,
			"target":34962
		},
		{
			"buffer":0,
			"byteLength":1380,
			"byteOffset":22420,
			"target":34963
		},
		{
			"buffer":0,
			"byteLength":2976,
			"byteOffset":23800,
			"target":34962
		},
		{
			"buffer":0,
			"byteLength":2976,
			"byteOffset":26776,
			"target":34962
		},
		{
			"buffer":0,
			"byteLength":1984,
			"byteOffset":29752,
			"target":34962
		},
		{
			"buffer":0,
			"byteLength":744,
			"byteOffset":31736,
			"target":34963
		},
		{
			"buffer":0,
			"byteLength":192,
			"byteOffset":32480,
			"target":34962
		},
		{
			"buffer":0,
			"byteLength":192,
			"byteOffset":32672,
			"target":34962
		},
		{
			"buffer":0,
			"byteLength":128,
			"byteOffset":32864,
			"target":34962
		},
		{
			"buffer":0,
			"byteLength":48,
			"byteOffset":32992,
			"target":34963
		},
		{
			"buffer":0,
			"byteLength":720,
			"byteOffset":33040,
			"target":34962
		},
		{
			"buffer":0,
			"byteLength":720,
			"byteOffset":33760,
			"target":34962
		},
		{
			"buffer":0,
			"byteLength":480,
			"byteOffset":34480,
			"target":34962
		},
		{
			"buffer":0,
			"byteLength":180,
			"byteOffset":34960,
			"target":34963
		},
		{
			"buffer":0,
			"byteLength":2160,
			"byteOffset":35140,
			"target":34962
		},
		{
			"buffer":0,
			"byteLength":2160,
			"byteOffset":37300,
			"target":34962
		},
		{
			"buffer":0,
			"byteLength":1440,
			"byteOffset":39460,
			"target":34962
		},
		{
			"buffer":0,
			"byteLength":540,
			"byteOffset":40900,
			"target":34963
		},
		{
			"buffer":0,
			"byteLength":2400,
			"byteOffset":41440,
			"target":34962
		},
		{
			"buffer":0,
			"byteLength":2400,
			"byteOffset":43840,
			"target":34962
		},
		{
			"buffer":0,
			"byteLength":1600,
			"byteOffset":46240,
			"target":34962
		},
		{
			"buffer":0,
			"byteLength":624,
			"byteOffset":47840,
			"target":34963
		},
		{
			"buffer":0,
			"byteLength":65376,
			"byteOffset":48464,
			"target":34962
		},
		{
			"buffer":0,
			"byteLength":65376,
			"byteOffset":113840,
			"target":34962
		},
		{
			"buffer":0,
			"byteLength":43584,
			"byteOffset":179216,
			"target":34962
		},
		{
			"buffer":0,
			"byteLength":16344,
			"byteOffset":222800,
			"target":34963
		},
		{
			"buffer":0,
			"byteLength":48,
			"byteOffset":239144,
			"target":34962
		},
		{
			"buffer":0,
			"byteLength":48,
			"byteOffset":239192,
			"target":34962
		},
		{
			"buffer":0,
			"byteLength":32,
			"byteOffset":239240,
			"target":34962
		},
		{
			"buffer":0,
			"byteLength":12,
			"byteOffset":239272,
			"target":34963
		}
	],
	"samplers":[
		{
			"magFilter":9728,
			"minFilter":9984
		},
		{
			"magFilter":9729,
			"minFilter":9987,
			"wrapS":33071,
			"wrapT":33071
		}
	],
	"buffers":[
		{
			"byteLength":239284,
			"uri":"end_portal.bin"
		}
	]
}
