{
  "accessors": [
    {
      "bufferView": 3,
      "componentType": 5126,
      "count": 310,
      "max": [
        0.49999988079071045,
        5.819490432739258,
        -0.9999993443489075
      ],
      "min": [
        -0.5000001192092896,
        2.819490432739258,
        -2.000000238418579
      ],
      "type": "VEC3"
    },
    {
      "bufferView": 3,
      "byteOffset": 3720,
      "componentType": 5126,
      "count": 310,
      "max": [
        1.0,
        1.0,
        1.0
      ],
      "min": [
        -1.0,
        -1.0,
        -1.0
      ],
      "type": "VEC3"
    },
    {
      "bufferView": 2,
      "componentType": 5126,
      "count": 310,
      "max": [
        0.7498290538787842,
        1.000199317932129
      ],
      "min": [
        0.5006538033485413,
        0.7499878406524658
      ],
      "type": "VEC2"
    },
    {
      "bufferView": 1,
      "componentType": 5125,
      "count": 1344,
      "type": "SCALAR"
    },
    {
      "bufferView": 3,
      "byteOffset": 7440,
      "componentType": 5126,
      "count": 310,
      "max": [
        0.49999988079071045,
        5.819490432739258,
        2.0000007152557373
      ],
      "min": [
        -0.5000001192092896,
        2.819490432739258,
        0.9999998211860657
      ],
      "type": "VEC3"
    },
    {
      "bufferView": 3,
      "byteOffset": 11160,
      "componentType": 5126,
      "count": 310,
      "max": [
        1.0,
        1.0,
        1.0
      ],
      "min": [
        -1.0,
        -1.0,
        -1.0
      ],
      "type": "VEC3"
    },
    {
      "bufferView": 2,
      "byteOffset": 2480,
      "componentType": 5126,
      "count": 310,
      "max": [
        0.8745020627975464,
        0.49947983026504517
      ],
      "min": [
        0.625270426273346,
        0.2500652074813843
      ],
      "type": "VEC2"
    },
    {
      "bufferView": 1,
      "byteOffset": 5376,
      "componentType": 5125,
      "count": 1344,
      "type": "SCALAR"
    },
    {
      "bufferView": 3,
      "byteOffset": 14880,
      "componentType": 5126,
      "count": 486,
      "max": [
        1.0000005960464478,
        7.819490432739258,
        1.0000005960464478
      ],
      "min": [
        -1.0000003576278687,
        5.819490432739258,
        -1.0000003576278687
      ],
      "type": "VEC3"
    },
    {
      "bufferView": 3,
      "byteOffset": 20712,
      "componentType": 5126,
      "count": 486,
      "max": [
        1.0,
        1.0,
        1.0
      ],
      "min": [
        -1.0,
        -1.0,
        -1.0
      ],
      "type": "VEC3"
    },
    {
      "bufferView": 2,
      "byteOffset": 4960,
      "componentType": 5126,
      "count": 486,
      "max": [
        0.49992862343788147,
        0.2500014305114746
      ],
      "min": [
        -1.296401023864746e-06,
        2.849102020263672e-05
      ],
      "type": "VEC2"
    },
    {
      "bufferView": 1,
      "byteOffset": 10752,
      "componentType": 5125,
      "count": 2304,
      "type": "SCALAR"
    },
    {
      "bufferView": 3,
      "byteOffset": 26544,
      "componentType": 5126,
      "count": 310,
      "max": [
        0.49999988079071045,
        2.819490432739258,
        6.556510925292969e-07
      ],
      "min": [
        -0.5000001192092896,
        -0.1805095672607422,
        -1.000000238418579
      ],
      "type": "VEC3"
    },
    {
      "bufferView": 3,
      "byteOffset": 30264,
      "componentType": 5126,
      "count": 310,
      "max": [
        1.0,
        1.0,
        1.0
      ],
      "min": [
        -1.0,
        -1.0,
        -1.0
      ],
      "type": "VEC3"
    },
    {
      "bufferView": 2,
      "byteOffset": 8848,
      "componentType": 5126,
      "count": 310,
      "max": [
        0.4994558095932007,
        0.9999303817749023
      ],
      "min": [
        0.25029075145721436,
        0.7504781484603882
      ],
      "type": "VEC2"
    },
    {
      "bufferView": 1,
      "byteOffset": 19968,
      "componentType": 5125,
      "count": 1344,
      "type": "SCALAR"
    },
    {
      "bufferView": 3,
      "byteOffset": 33984,
      "componentType": 5126,
      "count": 310,
      "max": [
        0.49999988079071045,
        2.819490432739258,
        1.0000007152557373
      ],
      "min": [
        -0.5000001192092896,
        -0.1805095672607422,
        -1.7881393432617188e-07
      ],
      "type": "VEC3"
    },
    {
      "bufferView": 3,
      "byteOffset": 37704,
      "componentType": 5126,
      "count": 310,
      "max": [
        1.0,
        1.0,
        1.0
      ],
      "min": [
        -1.0,
        -1.0,
        -1.0
      ],
      "type": "VEC3"
    },
    {
      "bufferView": 2,
      "byteOffset": 11328,
      "componentType": 5126,
      "count": 310,
      "max": [
        0.24957969784736633,
        0.4999430179595947
      ],
      "min": [
        0.00043318397365510464,
        0.25043612718582153
      ],
      "type": "VEC2"
    },
    {
      "bufferView": 1,
      "byteOffset": 25344,
      "componentType": 5125,
      "count": 1344,
      "type": "SCALAR"
    },
    {
      "bufferView": 3,
      "byteOffset": 41424,
      "componentType": 5126,
      "count": 454,
      "max": [
        0.49999988079071045,
        5.819490432739258,
        1.0000007152557373
      ],
      "min": [
        -0.5000001192092896,
        2.819490432739258,
        -1.000000238418579
      ],
      "type": "VEC3"
    },
    {
      "bufferView": 3,
      "byteOffset": 46872,
      "componentType": 5126,
      "count": 454,
      "max": [
        1.0,
        1.0,
        1.0
      ],
      "min": [
        -1.0,
        -1.0,
        -1.0
      ],
      "type": "VEC3"
    },
    {
      "bufferView": 2,
      "byteOffset": 13808,
      "componentType": 5126,
      "count": 454,
      "max": [
        0.6248924136161804,
        0.5003165006637573
      ],
      "min": [
        0.2502879798412323,
        0.2500420808792114
      ],
      "type": "VEC2"
    },
    {
      "bufferView": 1,
      "byteOffset": 30720,
      "componentType": 5125,
      "count": 2112,
      "type": "SCALAR"
    },
    {
      "bufferView": 5,
      "componentType": 5126,
      "count": 24,
      "max": [
        1.0,
        7.945688906829673e-08,
        1.0,
        0.0,
        1.0000001192092896,
        1.0000001192092896,
        1.0000001192092896,
        0.0,
        4.768372718899627e-07,
        1.0000001192092896,
        1.0,
        0.0,
        1.6790237395980512e-06,
        5.319491386413574,
        5.205111503601074,
        1.0
      ],
      "min": [
        6.12325411526054e-17,
        -1.0,
        -2.403964458608243e-07,
        0.0,
        -3.0536367034983414e-07,
        -1.000000238418579,
        -0.8944272994995117,
        0.0,
        -1.0,
        -1.0000001192092896,
        -1.0000001192092896,
        0.0,
        -5.319491863250732,
        -7.819491863250732,
        -5.319491863250732,
        1.0
      ],
      "type": "MAT4"
    },
    {
      "bufferView": 0,
      "componentType": 5123,
      "count": 310,
      "type": "VEC4"
    },
    {
      "bufferView": 4,
      "componentType": 5126,
      "count": 310,
      "max": [
        1.0,
        0.442938894033432,
        0.0,
        0.0
      ],
      "min": [
        0.5570611357688904,
        0.0,
        0.0,
        0.0
      ],
      "type": "VEC4"
    },
    {
      "bufferView": 0,
      "byteOffset": 2480,
      "componentType": 5123,
      "count": 310,
      "type": "VEC4"
    },
    {
      "bufferView": 4,
      "byteOffset": 4960,
      "componentType": 5126,
      "count": 310,
      "max": [
        1.0,
        0.45189592242240906,
        0.0,
        0.0
      ],
      "min": [
        0.5481040477752686,
        0.0,
        0.0,
        0.0
      ],
      "type": "VEC4"
    },
    {
      "bufferView": 0,
      "byteOffset": 4960,
      "componentType": 5123,
      "count": 486,
      "type": "VEC4"
    },
    {
      "bufferView": 4,
      "byteOffset": 9920,
      "componentType": 5126,
      "count": 486,
      "max": [
        1.0,
        0.0,
        0.0,
        0.0
      ],
      "min": [
        1.0,
        0.0,
        0.0,
        0.0
      ],
      "type": "VEC4"
    },
    {
      "bufferView": 0,
      "byteOffset": 8848,
      "componentType": 5123,
      "count": 310,
      "type": "VEC4"
    },
    {
      "bufferView": 4,
      "byteOffset": 17696,
      "componentType": 5126,
      "count": 310,
      "max": [
        1.0,
        0.40679025650024414,
        0.0,
        0.0
      ],
      "min": [
        0.5932097434997559,
        0.0,
        0.0,
        0.0
      ],
      "type": "VEC4"
    },
    {
      "bufferView": 0,
      "byteOffset": 11328,
      "componentType": 5123,
      "count": 310,
      "type": "VEC4"
    },
    {
      "bufferView": 4,
      "byteOffset": 22656,
      "componentType": 5126,
      "count": 310,
      "max": [
        1.0,
        0.3773098289966583,
        0.0,
        0.0
      ],
      "min": [
        0.6226901412010193,
        0.0,
        0.0,
        0.0
      ],
      "type": "VEC4"
    },
    {
      "bufferView": 0,
      "byteOffset": 13808,
      "componentType": 5123,
      "count": 454,
      "type": "VEC4"
    },
    {
      "bufferView": 4,
      "byteOffset": 27616,
      "componentType": 5126,
      "count": 454,
      "max": [
        1.0,
        0.42034026980400085,
        0.0,
        0.0
      ],
      "min": [
        0.5796597003936768,
        0.0,
        0.0,
        0.0
      ],
      "type": "VEC4"
    }
  ],
  "asset": {
    "extras": {
      "author": "Bully Magraptor (https://sketchfab.com/irex6510)",
      "license": "CC-BY-4.0 (http://creativecommons.org/licenses/by/4.0/)",
      "source": "https://sketchfab.com/3d-models/minecraft-steve-rigged-fbe1d1fab86d47b09171608103af3b2d",
      "title": "Minecraft Steve (Rigged)"
    },
    "generator": "Sketchfab-16.85.0",
    "version": "2.0"
  },
  "bufferViews": [
    {
      "buffer": 0,
      "byteLength": 17440,
      "byteStride": 8,
      "name": "shortBufferViews",
      "target": 34962
    },
    {
      "buffer": 0,
      "byteLength": 39168,
      "byteOffset": 17440,
      "name": "floatBufferViews",
      "target": 34963
    },
    {
      "buffer": 0,
      "byteLength": 17440,
      "byteOffset": 56608,
      "byteStride": 8,
      "name": "floatBufferViews",
      "target": 34962
    },
    {
      "buffer": 0,
      "byteLength": 52320,
      "byteOffset": 74048,
      "byteStride": 12,
      "name": "floatBufferViews",
      "target": 34962
    },
    {
      "buffer": 0,
      "byteLength": 34880,
      "byteOffset": 126368,
      "byteStride": 16,
      "name": "floatBufferViews",
      "target": 34962
    },
    {
      "buffer": 0,
      "byteLength": 1536,
      "byteOffset": 161248,
      "name": "floatBufferViews"
    }
  ],
  "buffers": [
    {
      "byteLength": 162784,
      "uri": "scene.bin"
    }
  ],
  "extensionsUsed": [
    "KHR_texture_transform"
  ],
  "images": [
    {
      "uri": "textures/skin_baseColor.jpeg"
    }
  ],
  "materials": [
    {
      "doubleSided": true,
      "name": "skin",
      "pbrMetallicRoughness": {
        "baseColorTexture": {
          "extensions": {
            "KHR_texture_transform": {
              "offset": [
                0,
                -1
              ]
            }
          },
          "index": 0
        },
        "metallicFactor": 0.0,
        "roughnessFactor": 0.5
      }
    }
  ],
  "meshes": [
    {
      "name": "Object_0",
      "primitives": [
        {
          "attributes": {
            "JOINTS_0": 25,
            "NORMAL": 1,
            "POSITION": 0,
            "TEXCOORD_0": 2,
            "WEIGHTS_0": 26
          },
          "indices": 3,
          "material": 0,
          "mode": 4
        }
      ]
    },
    {
      "name": "Object_1",
      "primitives": [
        {
          "attributes": {
            "JOINTS_0": 27,
            "NORMAL": 5,
            "POSITION": 4,
            "TEXCOORD_0": 6,
            "WEIGHTS_0": 28
          },
          "indices": 7,
          "material": 0,
          "mode": 4
        }
      ]
    },
    {
      "name": "Object_2",
      "primitives": [
        {
          "attributes": {
            "JOINTS_0": 29,
            "NORMAL": 9,
            "POSITION": 8,
            "TEXCOORD_0": 10,
            "WEIGHTS_0": 30
          },
          "indices": 11,
          "material": 0,
          "mode": 4
        }
      ]
    },
    {
      "name": "Object_3",
      "primitives": [
        {
          "attributes": {
            "JOINTS_0": 31,
            "NORMAL": 13,
            "POSITION": 12,
            "TEXCOORD_0": 14,
            "WEIGHTS_0": 32
          },
          "indices": 15,
          "material": 0,
          "mode": 4
        }
      ]
    },
    {
      "name": "Object_4",
      "primitives": [
        {
          "attributes": {
            "JOINTS_0": 33,
            "NORMAL": 17,
            "POSITION": 16,
            "TEXCOORD_0": 18,
            "WEIGHTS_0": 34
          },
          "indices": 19,
          "material": 0,
          "mode": 4
        }
      ]
    },
    {
      "name": "Object_5",
      "primitives": [
        {
          "attributes": {
            "JOINTS_0": 35,
            "NORMAL": 21,
            "POSITION": 20,
            "TEXCOORD_0": 22,
            "WEIGHTS_0": 36
          },
          "indices": 23,
          "material": 0,
          "mode": 4
        }
      ]
    }
  ],
  "nodes": [
    {
      "children": [
        1
      ],
      "matrix": [
        1.0,
        0.0,
        0.0,
        0.0,
        0.0,
        2.220446049250313e-16,
        -1.0,
        0.0,
        0.0,
        1.0,
        2.220446049250313e-16,
        0.0,
        0.0,
        0.0,
        0.0,
        1.0
      ],
      "name": "Sketchfab_model"
    },
    {
      "children": [
        2
      ],
      "name": "root"
    },
    {
      "children": [
        3
      ],
      "matrix": [
        1.0,
        0.0,
        0.0,
        0.0,
        0.0,
        2.220446049250313e-16,
        1.0,
        0.0,
        0.0,
        -1.0,
        2.220446049250313e-16,
        0.0,
        0.0,
        0.0,
        0.0,
        1.0
      ],
      "name": "GLTF_SceneRootNode"
    },
    {
      "children": [
        4
      ],
      "matrix": [
        1.0,
        0.0,
        0.0,
        0.0,
        0.0,
        1.0,
        0.0,
        0.0,
        0.0,
        0.0,
        1.0,
        0.0,
        0.0,
        2.819490432739258,
        0.0,
        1.0
      ],
      "name": "bones_29"
    },
    {
      "children": [
        5,
        7,
        9,
        11,
        13,
        15,
        17,
        6,
        8,
        10,
        12,
        14,
        16
      ],
      "name": "GLTF_created_0"
    },
    {
      "children": [
        18
      ],
      "name": "GLTF_created_0_rootJoint"
    },
    {
      "name": "steve_arm_left_23"
    },
    {
      "mesh": 0,
      "name": "Object_7",
      "skin": 0
    },
    {
      "name": "steve_arm_right_24"
    },
    {
      "mesh": 1,
      "name": "Object_9",
      "skin": 0
    },
    {
      "name": "steve_head_25"
    },
    {
      "mesh": 2,
      "name": "Object_11",
      "skin": 0
    },
    {
      "name": "steve_leg_left_26"
    },
    {
      "mesh": 3,
      "name": "Object_13",
      "skin": 0
    },
    {
      "name": "steve_leg_right_27"
    },
    {
      "mesh": 4,
      "name": "Object_15",
      "skin": 0
    },
    {
      "name": "steve_torso_28"
    },
    {
      "mesh": 5,
      "name": "Object_17",
      "skin": 0
    },
    {
      "children": [
        19,
        33,
        37
      ],
      "name": "Bone_017_22",
      "rotation": [
        -0.5,
        0.5,
        0.5,
        0.5
      ],
      "translation": [
        0.0,
        0.0,
        -6.260526392274941e-16
      ]
    },
    {
      "children": [
        20
      ],
      "name": "Bone_13",
      "rotation": [
        0.5,
        -0.5,
        -0.5,
        0.5
      ],
      "scale": [
        1.0,
        0.9999999403953552,
        1.0
      ],
      "translation": [
        -6.260595213701905e-16,
        1.7263710693723897e-16,
        0.0
      ]
    },
    {
      "children": [
        21,
        23,
        28
      ],
      "name": "Bone_001_12",
      "rotation": [
        9.98354059792301e-19,
        2.1855692367012125e-08,
        3.195231946680855e-17,
        1.0
      ],
      "translation": [
        4.462956247985417e-16,
        1.500000238418579,
        5.821425782967732e-15
      ]
    },
    {
      "children": [
        22
      ],
      "name": "Bone_002_1",
      "rotation": [
        1.2194595202457866e-17,
        1.7763568394002505e-15,
        4.160345401515997e-09,
        1.0
      ],
      "translation": [
        1.5566374457945506e-17,
        1.5000004768371582,
        1.5491422841783578e-14
      ]
    },
    {
      "name": "Bone_002_end_0",
      "rotation": [
        0.0,
        -2.0258277395503513e-24,
        0.0,
        1.0
      ],
      "translation": [
        1.6641379829707148e-08,
        2.000000476837158,
        1.6558361348728567e-09
      ]
    },
    {
      "children": [
        24
      ],
      "name": "Bone_003_6",
      "rotation": [
        -0.8506508469581604,
        -1.2475390720467772e-09,
        -7.062219142817128e-10,
        0.525731086730957
      ],
      "scale": [
        1.0,
        0.9999999403953552,
        0.9999998807907104
      ],
      "translation": [
        1.5566374457945506e-17,
        1.5000004768371582,
        1.5491422841783578e-14
      ]
    },
    {
      "children": [
        25
      ],
      "name": "Bone_004_5",
      "rotation": [
        0.2297528237104416,
        -3.0640092685274567e-09,
        1.5982330126007582e-08,
        0.9732490181922913
      ],
      "translation": [
        -3.725296515710852e-09,
        1.1180342435836792,
        -3.5762786865234375e-07
      ]
    },
    {
      "children": [
        26
      ],
      "name": "Bone_005_4",
      "rotation": [
        -0.7071065902709961,
        -1.8932742040789208e-09,
        -1.8894816378178803e-08,
        0.7071070671081543
      ],
      "translation": [
        1.5002136422026524e-08,
        0.4999999403953552,
        -2.3841852225814364e-07
      ]
    },
    {
      "children": [
        27
      ],
      "name": "Bone_006_3",
      "rotation": [
        -2.3841863594498136e-07,
        5.960453464126658e-09,
        -1.7872423541120952e-08,
        1.0
      ],
      "translation": [
        -4.419905152985848e-08,
        1.2500005960464478,
        -1.47011178341927e-07
      ]
    },
    {
      "name": "Bone_006_end_2",
      "rotation": [
        3.3087224502121107e-23,
        -9.416482215285002e-16,
        -3.3040235349372175e-15,
        1.0
      ],
      "translation": [
        -7.972965221370032e-08,
        1.2500001192092896,
        5.827121185575379e-08
      ]
    },
    {
      "children": [
        29
      ],
      "name": "Bone_010_11",
      "rotation": [
        0.8506508469581604,
        -6.764208393406079e-08,
        -9.94963826883577e-08,
        0.525731086730957
      ],
      "scale": [
        1.0,
        0.9999999403953552,
        0.9999998807907104
      ],
      "translation": [
        1.5566374457945506e-17,
        1.5000004768371582,
        1.5491422841783578e-14
      ]
    },
    {
      "children": [
        30
      ],
      "name": "Bone_011_10",
      "rotation": [
        -0.16245979070663452,
        0.6881909966468811,
        -0.16245977580547333,
        0.6881909370422363
      ],
      "translation": [
        1.1175913527949888e-08,
        1.1180342435836792,
        1.49011640360186e-07
      ]
    },
    {
      "children": [
        31
      ],
      "name": "Bone_012_9",
      "rotation": [
        0.49999985098838806,
        -0.5000001192092896,
        0.5,
        0.5000001192092896
      ],
      "scale": [
        1.0,
        0.9999999403953552,
        1.0
      ],
      "translation": [
        -2.3841825225190405e-07,
        0.5000002384185791,
        -1.4901125666710868e-08
      ]
    },
    {
      "children": [
        32
      ],
      "name": "Bone_013_8",
      "rotation": [
        1.907348234908568e-07,
        -9.324067740124065e-09,
        -1.632311921184737e-07,
        1.0
      ],
      "translation": [
        3.7425380128297547e-07,
        1.2499996423721313,
        -6.093796400818974e-08
      ]
    },
    {
      "name": "Bone_013_end_7",
      "rotation": [
        3.639438841171027e-15,
        1.7618154012782623e-15,
        3.271787578547087e-15,
        1.0
      ],
      "translation": [
        3.793830671838805e-08,
        1.250000238418579,
        -5.827121185575379e-08
      ]
    },
    {
      "children": [
        34
      ],
      "name": "Bone_007_17",
      "rotation": [
        3.925248086365362e-16,
        -4.3582087126566016e-16,
        -0.7071068286895752,
        0.7071068286895752
      ],
      "translation": [
        -6.260595213701905e-16,
        1.7263710693723897e-16,
        0.0
      ]
    },
    {
      "children": [
        35
      ],
      "name": "Bone_008_16",
      "rotation": [
        -0.7071067094802856,
        9.131818501373345e-08,
        -7.375698629630278e-08,
        0.7071068286895752
      ],
      "translation": [
        0.0,
        0.4999998211860657,
        -4.440892098500626e-16
      ]
    },
    {
      "children": [
        36
      ],
      "name": "Bone_009_15",
      "rotation": [
        -7.947285496356926e-08,
        -1.1672577215904312e-07,
        -3.108085522285364e-08,
        1.0
      ],
      "translation": [
        2.980232594040899e-08,
        1.5,
        3.0913355431039236e-08
      ]
    },
    {
      "name": "Bone_009_end_14",
      "rotation": [
        7.105427357601002e-15,
        2.517966371973386e-15,
        5.3290705182007514e-15,
        1.0
      ],
      "translation": [
        -5.5989577418813496e-08,
        1.5,
        2.4980018054066022e-15
      ]
    },
    {
      "children": [
        38
      ],
      "name": "Bone_014_21",
      "rotation": [
        0.5,
        -0.5,
        0.5,
        0.5
      ],
      "scale": [
        1.0,
        0.9999999403953552,
        1.0
      ],
      "translation": [
        -6.260595213701905e-16,
        1.7263710693723897e-16,
        0.0
      ]
    },
    {
      "children": [
        39
      ],
      "name": "Bone_015_20",
      "rotation": [
        0.49999988079071045,
        -0.5,
        0.5,
        0.5000001192092896
      ],
      "translation": [
        -4.440892098500626e-15,
        0.4999998211860657,
        7.105427357601002e-15
      ]
    },
    {
      "children": [
        40
      ],
      "name": "Bone_016_19",
      "rotation": [
        9.934109357345733e-08,
        -1.3261904996397789e-07,
        -1.7376720506945276e-08,
        1.0
      ],
      "translation": [
        -1.4901138989387164e-08,
        1.5000001192092896,
        -2.3740685861639577e-08
      ]
    },
    {
      "name": "Bone_016_end_18",
      "rotation": [
        4.638081265406614e-24,
        1.4210856409267898e-14,
        3.552713678800501e-15,
        1.0
      ],
      "translation": [
        2.3943069749066126e-11,
        1.5,
        0.0
      ]
    }
  ],
  "samplers": [
    {
      "magFilter": 9729,
      "minFilter": 9987,
      "wrapS": 10497,
      "wrapT": 10497
    }
  ],
  "scene": 0,
  "scenes": [
    {
      "name": "Sketchfab_Scene",
      "nodes": [
        0
      ]
    }
  ],
  "skins": [
    {
      "inverseBindMatrices": 24,
      "joints": [
        5,
        18,
        19,
        20,
        21,
        22,
        23,
        24,
        25,
        26,
        27,
        28,
        29,
        30,
        31,
        32,
        33,
        34,
        35,
        36,
        37,
        38,
        39,
        40
      ],
      "skeleton": 5
    }
  ],
  "textures": [
    {
      "sampler": 0,
      "source": 0
    }
  ]
}
